<mxfile host="app.diagrams.net" modified="2023-11-24T13:53:26.517Z" agent="Mozilla/5.0 (Windows NT 10.0; Win64; x64) AppleWebKit/537.36 (KHTML, like Gecko) Chrome/119.0.0.0 Safari/537.36" etag="Urhuh2XXn7D12c4k2_pS" version="22.1.3" type="github">
  <diagram name="Page-1" id="wc2Qc8WRzNNXnkdBEC_u">
    <mxGraphModel dx="6105" dy="3370" grid="1" gridSize="10" guides="1" tooltips="1" connect="1" arrows="1" fold="1" page="1" pageScale="1" pageWidth="850" pageHeight="1400" math="0" shadow="0">
      <root>
        <mxCell id="0" />
        <mxCell id="1" parent="0" />
        <mxCell id="_g2ogZUAEanuZd8ZjJVK-3" value="" style="rounded=0;whiteSpace=wrap;html=1;fillColor=#000000;" parent="1" vertex="1">
          <mxGeometry width="850" height="1400" as="geometry" />
        </mxCell>
        <mxCell id="_g2ogZUAEanuZd8ZjJVK-1" value="" style="shape=image;verticalLabelPosition=bottom;labelBackgroundColor=default;verticalAlign=top;aspect=fixed;imageAspect=0;image=data:image/png,iVBORw0KGgoAAAANSUhEUgAAAxEAAAPoCAYAAACh+nO3AAAAOXRFWHRTb2Z0d2FyZQBNYXRwbG90bGliIHZlcnNpb24zLjcuMiwgaHR0cHM6Ly9tYXRwbG90bGliLm9yZy8pXeV/AAAACXBIWXMAAA9hAAAPYQGoP6dpAABTQElEQVR4nO3dafTtS1oX9n2gV3jTvkn6NtAyaPpiGxZxiqhEo0GjcQyCYaahmWdo5kFmkHlo5qZpoJkVIkM0ajRKNBpUiFN6EUnfq0IzdHN7dV72Ikv+Jy/uukLOv+rc53ueXfXb+5zP5+W5VfVU1a+qfvvp3bX/d06n090TAI+8N/zoF9z6t+e9++1/A4A3O7oDAADAdZFEAAAAEUkEAAAQkUQAAACROycXqwEeOW/4kc9/4LrPe48vPGNPALhGvokAAAAikggAACAiiQAAACKSCAAAIOJiNcBD7A1/tX6B+nl/oXZhetRmtS4ADwffRAAAABFJBAAAEJFEAAAAEUkEAAAQkUQAAAARv84E8JB4ww9/Xrns897zi1r1O3EAuH6+iQAAACKSCAAAICKJAAAAIpIIAAAg8pyjOwBA7g0/9Lm3//Hu7d/JeN57fXG90W79gVE/u20CcDzfRAAAABFJBAAAEJFEAAAAEUkEAAAQ8RerAS7cG/7K55TKPe+9v+SB6yZWxBm1CcDl8k0EAAAQkUQAAAARSQQAABCRRAAAABF/sRrgQrzhB//i+D/cDP6S9Pv+pVqjg7pR/apmnNHYz95HAM7GNxEAAEBEEgEAAEQkEQAAQEQSAQAARCQRAABA5M7pdBr/pAYAy7zhBya/xDTwvPe7/StFSf1OnJEVsRPVfgKwjm8iAACAiCQCAACISCIAAICIJAIAAIg85+gOADzs3vADnz3419u/afG89/vSoNVu/dvG/dwTOzHq5874APgmAgAACEkiAACAiCQCAACISCIAAICIv1gNcEZPfd9nlco99gFf9sB1E6M4SaxZ/Wp71fpJm1Wd2ADcn28iAACAiCQCAACISCIAAICIJAIAAIj4i9UAD+Cp7/3M8X+4e/u3Kh578ZfXGh3Ujeoniv2cjrPQ3qx+OU5zPqqxAcj5JgIAAIhIIgAAgIgkAgAAiEgiAACAiCQCAACI+HUmgGfx1PeMfjloXPaxDxz88tCo/sikzVH9UZxq3fvFqpSrxo4EcTrzOau7ZEwADzHfRAAAABFJBAAAEJFEAAAAEUkEAAAQcbEa4Dd46lWffvsfb25u/dNjL/nKeqPd+gPDfhZjR/EH9Uexk/FU5zjp04r57LYJ8DDzTQQAABCRRAAAABFJBAAAEJFEAAAAkTun+t8tBXioPPVdtcvJj33w7Qu21bqJUZwk1qx+p81qnO58rOj70f0EeJj5JgIAAIhIIgAAgIgkAgAAiEgiAACAiL9YDTz0nvrOTxv/h7u3f1fisQ/5qlqjg7pR/USxn9NxNtrstJe0ua3vC/q55JkDXDjfRAAAABFJBAAAEJFEAAAAEUkEAAAQkUQAAACRO6fTafxTFQBX6KlXfmq57GMf9tWt+p04Iyv6Xo2d1F8xRyPdvh8t6T/AtfFNBAAAEJFEAAAAEUkEAAAQkUQAAACR5xzdAYAH9dS3Dy7TDn4q4rEPDy64dusPDPtZjB3FH9Qvx75P/Eq57hyNdPu+ok+JUf+P7hPAufgmAgAAiEgiAACAiCQCAACISCIAAICIv1gNXIWnXvEppXKPfcTXPHDdxChOEmtWv9NmN05V0p9q/F1tHj0fIyv6BLCabyIAAICIJAIAAIhIIgAAgIgkAgAAiPiL1cBF+ZWXf/Lw3+/e3P4NiOd/1NeW2hzVTeonqv2cjbPT5sgsTqd+0p/qOHe1uWs+um2uWJsA5+SbCAAAICKJAAAAIpIIAAAgIokAAAAiLlYDh/mVb/2k2/94d3JJ9aO/rlZ/ZNLmqP4oTrXu/WJVylVj3zd+sT+d+kk/2/U3tbliPjptzuq25w7gTHwTAQAARCQRAABARBIBAABEJBEAAEBEEgEAAETunE6n4k+JADy4X/mW2i/VPP9jgl8oGrSZ1K+2majG78bpxO7a1fcVzyJpc8VausQ2AR6EbyIAAICIJAIAAIhIIgAAgIgkAgAAiLhYDZzdr3zTJ5bKPf/jvv6B6yZGcZJYs/qdNrtxqrFXtDnSjZPE7sRK2qzOZ3fN7moT4Jx8EwEAAEQkEQAAQEQSAQAARCQRAABA5DlHdwC4Xr/yjZPLn4Ofa3j+xxcvek5+6qFcP1Hs53ScjTZHZnHKfRrEXtFmMketsU/WwqhsZzxT1bIr1myzzeocATwo30QAAAARSQQAABCRRAAAABFJBAAAEHGxGij5lW/4hNv/eHd8+/P5n/ANtfojkzZH9UdxqnXvF6tSrhr7vvEftD+Tskmfzt5m8NzOHntVm431cTrV12yytzrzOavbnmfgkeSbCAAAICKJAAAAIpIIAAAgIokAAAAikggAACDi15mAW17/so+/9W93b27/2stbvvQby21264+M+lmNncQf1a/GntXvjr3ap1mc6jPeNccjs9ijNs89nln9pFxnfXXXRyJZNwDP8E0EAAAQkUQAAAARSQQAABCRRAAAAJE7p9OpdnMMeCi9/utqF03f8pMGl1mLdROjOEmsWf1Om9041dhHj707pk6c5FlU668Yz8iKfTDTGVO3n7vmE7gOvokAAAAikggAACAiiQAAACKSCAAAIOIvVsMj5PVf+3G3//Hu4K/lfvI31Roc1I3qJ4r9HI6x2ebILE65T5O5G9o09lH97nyUx9lZh5P6nfHMJM9yxT6ojmlFP1fMJ3C9fBMBAABEJBEAAEBEEgEAAEQkEQAAQMTFangIvf6rP3b8H24Gl1c/9Zvr9QvtzeqP4lTr3i9WpVw19n3jP2h/JmWTPu0a+0h3PsrxB/XLsSf1k7VdLhvM8bXsg84z7owRuG6+iQAAACKSCAAAICKJAAAAIpIIAAAgIokAAAAifp0Jrtzrv+pjbv/j3ckv5Xzat9QaHdQv150Y9rMYO4o/qF+OPanfHfuKPnXjjMZUXUvJfHSee3vei3GSslGfOs99wT5IynbmPllzwPXyTQQAABCRRAAAABFJBAAAEJFEAAAAERer4Yq8/itHF19v/9Nbfvr4AuOw/sigzVHdKE7Qz3KbI8041dg7x17WjVOsX34WzT7N4rTqB/eNq/sgqb9iLVZjJ2Wraz6Z42QfAZfPNxEAAEBEEgEAAEQkEQAAQEQSAQAARFyshgv1ui//6Fv/dvfm9o3Ft/rMby232a1/7jijMXbbHJnFqfZpFHumM/bkWVT72Z3jarlu35P+dOofvV+qz302xhV96rS5Yi2sOJOA8/NNBAAAEJFEAAAAEUkEAAAQkUQAAAARF6vhYK/7so8a/4e7gwuLn/Xyev1im6P6ozgjSd+r5aqx7xv/QfszKZv0qTP27rOM+tlxxX3fuV+GsRrrYxar2qdkv3b21pFnErCPbyIAAICIJAIAAIhIIgAAgIgkAgAAiEgiAACAiF9ngo1e96UfefsfZ7/C8tnfVmt09Es31boTw34WY0fxR7/MUo09qd8d+4o+VcuteG5L1sJD1vdzxBrqzFPzF8WSckvGfmazPXgNfYeHlW8iAACAiCQCAACISCIAAICIJAIAAIjcOZ1Owe0toOp1X/IRpXJv9TmvaNVPjGJ1+znS6XsSpxq7O8fdPnViz+J318e518Ks7jX0fVa/+txX7NWZ6ti7875izVetWB/A+fkmAgAAiEgiAACAiCQCAACISCIAAICIv1gNZ/C6Lx5cBBz8ZMFbfW5w4a9b/8xxhmNstjkyi1PuU/JTEY2xJ8/iatZHp80F8x5ZMJ/lNT8Z+5L9GsSvllux5qtW7I1dfYdHnW8iAACAiCQCAACISCIAAICIJAIAAIi4WA2B133Rh4//w93bNwHf6vO+vV6/2Oao/ijOzDD+IE61P+3YxThJ2aRPnbF3n+XR66O6FnY9t0P7PqkfraWB7n6tttlZx0nZXefP0XsDqPFNBAAAEJFEAAAAEUkEAAAQkUQAAAARF6th4pe/4MNu/dvdm/HFxLf+gleW2hzVr9adGfVzRfxR3V2xd/apWq7b92qcnbFWxFkRe1ffR2tpFGe25qrrs9tmZw8nZZN+dtqs1k3qj8z6vmsfwLXzTQQAABCRRAAAABFJBAAAEJFEAAAAEUkEAAAQuXM6neo/1wAPqV/+/NovjLz1F45/taNaPzGK1e3nSKfvSZxq7O4cd/vUiZ3E766ZS4uzKn7Hin2Q7MvO3CVtrnjG1b2Z7OGRSzs7kzbhUeebCAAAICKJAAAAIpIIAAAgIokAAAAizzm6A7DbL3/eh97+x7u3f1/grb/oO+qNduufOc5wjM02R2Zxyn0axJ5qjD15Ft31UZ775prpxEliVedz2p9de2Ng1z6YzXFr7hbsjUg1/qDctnlPLNhvu9YxXCrfRAAAABFJBAAAEJFEAAAAEUkEAAAQcbGah9Yvf86HjP/DzeCC3Zd8Z71+sc1R/VGcmWH8QZxqf5L45bFX+zMpm8xHZ+zdZ9nt59nnvRknirVgzXX3xkh1v+yco3KsBWsumeNznzUrnuWKs/PoMx6unW8iAACAiCQCAACISCIAAICIJAIAAIi4WM1D4Zf/4uCC3ORe4Fv/peLFt0H9ct2JYT9XxJ+MvRx/wdhHbXbno1ru6OfWmffTqd7/beur2F5SdtT3WX+q+31Uf+ccdZ771md55rNm1vfy8zh6PhqSscO1800EAAAQkUQAAAARSQQAABCRRAAAABFJBAAAEPHrTFydX/rs279+cXfwaxwv+NLxr2GM6o+M2pzVHcXq9nOk0/c0ViV2MsfdsVdd4nPr6jz37vrqzNFMt5+d+t29UX0Ws1i71k23n7vW3K45Ss6vTpuz9bUiPhzNNxEAAEBEEgEAAEQkEQAAQEQSAQAARFys5qL90md+8O1/vLl9c+0FX/5d9Ua79c8cZzjGZpszo1jlPg1iTzXG3h3PrvUxe26dtTRdC40xddfXufszq9/tZ7n+ZIyd+iv2YGLJPmhY8SxXnAvJHl4xxyvWAuzkmwgAACAiiQAAACKSCAAAICKJAAAAIi5WcxF+6TNeMv4Pgz//+YKveFW9frHNUf1RnJlh/Oqf8J2Uq8bvjr1aLpmPTpzueFasj6RcdS0la6Y1pub6qra54rldi53nT3XdJGumM/fdddyKM7NifV3Juwh28k0EAAAQkUQAAAARSQQAABCRRAAAABEXq9nulz79Jbf/cXKX9QVf+apao4P65boTw36uiD8Zezn+grGP2uzOR7Vcu+/FOO1YR6/ZZv3R8xzVr+7XFfttyVpoWnJ+JTadNSvWwrnj3C/Wg8ZO41fLddbC7Oy9xP3Bo8U3EQAAQEQSAQAARCQRAABARBIBAABEJBEAAEDkzqn+mwMQ+8VP+6BSud/8Vd/dqp8Yxer2c6Tb9yRWNfausVclc1SNv2LeV6zDS1QdezJHK+ZzxVocWXF+7VrHiU6fumdiZ83NylYd/dyueW/A6eSbCAAAICSJAAAAIpIIAAAgIokAAAAizzm6Azw8fvFTBxfCBtf2f/NXBxe/uvXPHGc4xmabM6NY5T4lP5fQGHt3PMkcled+xZrZtQ4vUXUtLVhzM921WG1zxfnVWcdx/KJOn7pnYqvcpOyK/b7tuV3g3oAZ30QAAAARSQQAABCRRAAAABFJBAAAEHGxmtgvfsrkgtnoQtjXDC7ozuoX2xzVH8WZGcZvXvirxu+OvVoumY9OnO54uv3sznt5fQZjj8Z0YVbsjWrZXefC0edXd310zr/u2LdZsJZWrIVEed0cuDcg5ZsIAAAgIokAAAAikggAACAiiQAAACIuVnNfv/BJH3jr3+7ejG+9vc3XfU+pzVH9at2ZUT9XxJ+NvRp/xdhHbXbno1ru6OfWmfekbDLOUZ+687RCdW9390a17K45Ovr8qq6P2dpesQ+q8Vc8o+QdM7JizXbmI3luR54Ls35e4lnF5fJNBAAAEJFEAAAAEUkEAAAQkUQAAAARSQQAABDx60z8B7/w0sGvNQx+vOJtXjb+9YZh/ZFBm7O6o1jdfo50+p7GqsbeNfayC3xuSwTj7NTfNc5p34tz390b1bIr5qi65qZlRxasj6Tctv2x4BktOQM6z6O5ZpNy1b214vl298HhZzIXyzcRAABARBIBAABEJBEAAEBEEgEAAERcrH5E/cInvPj2P97cvmn1Nt/wvfVGu/XPHGc4xmabM6NY5T4NYk81x14d05Hro9v3xJJxNmJ34yTrqxxrxXwsWAtHPsslJs/tyHWz65zdeXZ34rTKTcp2n++KfbBizfFw8E0EAAAQkUQAAAARSQQAABCRRAAAABEXqx8Br/3425ei7g7ufr3tN96+KDWqOzNqc1R/FGem2vdqf5L43bFXyyXz0R17dUy71kdSrrOWZv3sjHPFOp71s9qnZH111kIyHyv2cLVssmaT53luyRx11md3H5y77qo2L/G9Uy274py9xHc7DwffRAAAABFJBAAAEJFEAAAAEUkEAAAQcbH6IfLaj5tclBpdtPqm4gWoTt2JaT/PHX92Qbcaf8HYR2125yMp1+7/jjhBm51nOWuzWn/bOl7V5oo+nTtOcEm1uzdGz3PFfAzXzYJnmZQ7996a1S3HWbDfjn7vtMoefM5W7dpDXA7fRAAAABFJBAAAEJFEAAAAEUkEAAAQcbH6Sr32Yz7g9j/ejG9Kve23fF+t/sigzVndcpxBm6O6M52+p7GqsXeNvWwy9lGfqvGTNVeNk7Q5dOBa6j635FlU56k8nqB+a30Ecap122Wb52R7fRXXUvdZtspNyu46q5bEabrENbvinD13m8k7k+vjmwgAACAiiQAAACKSCAAAICKJAAAAIpIIAAAg4teZrsDPf/TtXze4O/hhhbf71vqvHXTrnzvOaIzdNmdGsap9GsWe6Y69Oqakn525X7FmVqzjXWspeW671tIKnfVxOu3rZ3U+u/O+a32tmM8VY++evSvidK14545012xnLR19dh/9jDkP30QAAAARSQQAABCRRAAAABFJBAAAEHGx+sL8/EcNLu2NLjC9fHB5c1R3ZnSZbVB/FGem2vdqf5L43bFXyyXz0R17eUwL+tmd9/L6LK7Dqe7YBzrznpTtPqPufh3pnD9Jm7v6ObTzuQ1011d1PltzNCm74r2z4qypmva9MfZZf1as2c5ausSze8VZwVq+iQAAACKSCAAAICKJAAAAIpIIAAAg4mL1QX7uI8YXkO7e3P63t39F8a9SDuom9Udm/azG7/a9Gr8TO2mzOx9JuSOfW2fek7LdZzQy6vsszqjstaylUZ92jX3F+krirDhrqmUvcX2NdON0zq8kTves6ayl7tm76/xb8Y5I7FqzI8l+Yz/fRAAAABFJBAAAEJFEAAAAEUkEAAAQcbF6g5/78Pe//Y93x3+C8u2//ftr9UcmbY7ql+MM2hzVnen2PYlVjb1r7GWbntus/jaDPlXHOJOMvdqn6hzP+nmJa6lattyng8ez4pyslo3GuWB9jVTXXHmOJvWr5bpxdq2laA8X20zK7nq3Jzpr6cjY54hPzjcRAABARBIBAABEJBEAAEBEEgEAAEQkEQAAQMSvM53Zz33Y6NcFbv/T278y+YWPZv0zxxmOsdnmzChWuU/BD2d0x14dU9LP8jwFc1ydz67OPti5vsprZNNa6u6Nbj/Lcx/UXbE3qn1qr+3OHE3q74qz5B2xKfYl7o0Va2nX2Ruds41+Js9txWelXe83fp1vIgAAgIgkAgAAiEgiAACAiCQCAACIuFjd8O8+5PYlnrs3t8v9lu+8fbFnVHdm1Oao/ijOTLXv1f4k8btjr5ZL5qM79uqYkn522kzKdtbSrI+d53Et62tFm92+d9d8Ur9qxd6o1k/Wduc871oRp/uOqLaZrOPqu/AS90Z1PpMz8Vre47veRZf4WYn7800EAAAQkUQAAAARSQQAABCRRAAAABEXqwv+3QfX/7Ljb/muB/8rw1H9gWk/i/G7fS/H78QO2uzOR1Ku3f9irBXzNGqz8yxXtXlp66tddkE/u2t+VL/apxXn5LYzLajfmaNZ/eT8Ku+tTW3uOpO6jn4/Xtyab55p287UTefkknf4I8A3EQAAQEQSAQAARCQRAABARBIBAABEXKy+x799yeAvQE4uAP3WV92+iDOqPzJrc1S/GifpZzX2SDdOErsz9k5/ZrrPrVp3FquzPmZtVst153PXMxpZsb5mOnN8iftgxbmw66ypxrlfrEq5bpxL3FvVNpOzr7pmO+dpEqfb5kjyjqjW39nPatkj30UrzsmkTX6dbyIAAICIJAIAAIhIIgAAgIgkAgAAiEgiAACAyCP960z/9gMHt/Fvbv/Tb/2e4HZ+t/6COMNxNtusxhnVr877VLGfs3FXx5T0M4nfabOs2+agfvX5zsp226zatb6S+rvidPfBkjNxZMFZsyLOrjaP3lutPbNpb5WfeRBnRZsrHN7PTpsL3kU7P5OteEc9THwTAQAARCQRAABARBIBAABEJBEAAEDkkblY/W9eXPvT5//p996+MDOqOzNqc1R/FGem2vekT9X43bGfuz/dOKdTfUwr+tl97tX1ec1jn/WxM/Zu33ftg11xkrLVeZ/NcfUZdcd+5Ppa0eZMd32fu81u3ztn0unUG3u3ze67vdrmzn6ee7+ueBet+EzWrd997tfKNxEAAEBEEgEAAEQkEQAAQEQSAQAARB66i9X/5gMmF2ZGF8e+r3gRZnapqVp/YNrPYvwo9uhiUDV+N/a5+zOpn5Q78rntGmf7GQ1sG3twUbM69q377QritMsueEZdR66vyKbzPNoHF7ZfE62xzy79NsY+q9vp02yOruUZPQqq6/Bh45sIAAAgIokAAAAikggAACAiiQAAACJXfbH6yfcb/GXFm3HZF/7A7Qsuo/ojszZH9atxkn5WY8+MYlXjJLE7Y+/0Z+YSn9sKoz4lz2jkyOeWmD2ParnOfCRjr87nruc2053Patld89ldn92+d597tU/VcR59fnXmczZHnTV7iedX0qdLXPOPgl3n+TXwTQQAABCRRAAAABFJBAAAEJFEAAAAEUkEAAAQuZpfZ3ryfWt/Hv6FPxjceu/WXxBnOM5mm9U4o/rVeZ8q9nM27uqYkn6W56n53Faspe4+OPf66j63RGstTsp15qNcd1K/u19XxOnOZ7VsspbO3Wa0N67kHdNZH7P6nX5O+9OZjwXn+SWeX9190Hq3T9rs7q1rtuJceJjmzjcRAABARBIBAABEJBEAAEBEEgEAAEQu8mL1E+/7Abf+bXSn6vEf/L5S3ZlRm6P6ozgz1b7P+3TngeN3x37u/szqJ+WqY6quj26b87K3+79rLXWfR1K/0t7p1Bv77Pl0xj7rZ2fsXd39emnnQrfsuddmEjuJfy3vmO7cVfuZvPM68zlrc9c74sjza4XumbjinXek7nM7+lw4im8iAACAiCQCAACISCIAAICIJAIAAIgcerH6Ne89uchyc/vf3uGvFC/7DOom9Udm/azGT2KP6lfjrxh7pz+z+km5Tt+TWN041TZXrKVum6P61TjJc1uxjrttVsfeVZ27JPalnQvdsslZ012f1fjVct01s+tcmPWzM3cr3nkr9mBi13v40s6fWdmR7vvpyGfcfZeN7DoXjt4b9/JNBAAAEJFEAAAAEUkEAAAQkUQAAACRbRerX/Neg8s1kz9B+Q4/NLicM6o/MmlzVL8cJ+hnNfbUIFY1ThK/M/Zuf4aaz61adxarNUeTNqvl2vN54DOK4lzJ2Dtrbla/2s+dZ8WKM3Fo195YUL9abvbcDj1nm8+oHD+Yj079FWdacp7vOlOPPH+WWPBuT3Tno/PZc8W5kLS5g28iAACAiCQCAACISCIAAICIJAIAAIgsuVj9f7/n4K8BDi6I/LYfDv6qZbP+ijijcXbbrMYZ1Z/1ZxS/Wi6JUx1TdX2k8TttVnXbHNVP5rM6d7ueUfVZJPWT/XZkmzOd/d5dX91+Vst1z+5quRXrK6lfLbfiXbbiXEj6tOv9VnWJ753ue7y7FkZ2vcdHrnmOZy7xs+dId+4elG8iAACAiCQCAACISCIAAICIJAIAAIhIIgAAgEj715l+9i+8+Na/3b25Xe5Ff/V7S3VnRm2O6o/izFT7Pu/TnQeO3x17tT+nU71Ps/rVctUxVddHEr/73Kvrc/Ysrnns4zi3/y2Js0J37LvaHOnMe7f+ijnadX4dveZGjpyPpOzOc+Ves/novB+P3hsrnnv33dx5Rsl7vPN+vMQ5vpbPnkf3s8I3EQAAQEQSAQAARCQRAABARBIBAABEyherkwse3YsbKy507Yh9CfFHun2qOvK5XcMYZ44ee+ey49Hz0bkE2G0zqT+y69Jwcsn1mvu+M/69LvEC+IpzZcXeqjr6rBk5+vPCimfUGVM3drXNFY5+lkeeaZ3YvokAAAAikggAACAiiQAAACKSCAAAIDK8WP2v32Pw1/Tujhv47T9y+0LGqP7IrM1R/WqcpJ/V2DOjWNU4SfxdY6+6xOe2wqhPs/XRWV9Hj72zX69lPi7xXKjul0QynyO7+l7t56zNI+cueeet2AcjK95Flxb7Es+aZB1213xHd29V20zKrZjjav3uu2zFszzyTOvsLd9EAAAAEUkEAAAQkUQAAAARSQQAABAZXqy+e3Pn1r/9Zz/2PeVGu/VXxPm//vwHFtu8/W9J30dxRvVn/RnFH5frjb06plHdWR+rbe7qe6I6zp3ra8XYu+PsxBlZMR/Jmt11LozbvL0PZv3pjLN7dlfLVefy6fq3/63bzxVnb+dMu1+sc8aexT/y/EjWcSfO/WJV6q84z+dla++97nNL5m7k3J/fVuyNnWfNuM0Hf5bzNm//W7IWVrwPKvF9EwEAAEQkEQAAQEQSAQAARCQRAABARBIBAABExr/ONPiz2D/zbsEt82L9d/zx+i3xUf3qn12fla3G7449KVftU3fs1TEl89ZpMym7ay0lbXbrV9usjn32LKr93BUn0dlb3dgjs7FX52nXmtt1fnXnuNvP7tnZmbvueT6yYj6OXrMr3jsrXNr5tWtvJPE7aybt07klnyE6nz13jv2o94FvIgAAgIgkAgAAiEgiAACAiCQCAACIDC9Wj+y8mFi18yLfivgj3T5V7brUtCJO97LQrja7l5NHuvN55HNfMR9VyYXSpH7HrrEn8Tu6l3arddP459bt09FnQMeus3eku4eTNqtld+3ha/6sk1xYvpbPVCuex6W9i6p8EwEAAEQkEQAAQEQSAQAARCQRAABAZHix+ubmzq1/e/Wf+6BhA+/01767FGhU/+ZmXLbT5swoVjVOEn/U5oqxJ6rPszvvozF15mjW5rjc7TF253JFm9U4s1jVNT+bt2792+XGfe+UTeajWn9WtzMfyVrYNfakzXOfX9356Kz3c/Rp3Gb9XTiu/+BxkjXbfe9U+1Qtl8z7ijPtyPfwivMr+fy1Yr+e+73xdNnzfi6Z1V9xVnXnY8W7fdf6updvIgAAgIgkAgAAiEgiAACAiCQCAACIlP9idfdi4tFtVuN0L/dVdS/NVesm8bvjXHHpuNNm9zJat82kfseKeb9EK+Zu5MhnmcTq7uHOutl1TibxR5LztNr/a95vu/p+ie+SJM6K/bbrc021/iU+o139vMSxd+Ps+ix+b1nfRAAAABFJBAAAEJFEAAAAEUkEAAAQkUQAAACR4a8z3b1bb2BU9j//672b6502/88/W7+hXh3nrFy1T935rI5pRT+TZznq56j+qNys752xJ31fMfYVcarro7sHR5LnNrJrvyWO3G8r2kzWV3ec1XIr5uPcfZ+VrZ5f3bNi1z7a9X7s7tVrnuNdZ+/Mrv3aed/fL36l3JGfMU+nfeuz+9xXzNO9fBMBAABEJBEAAEBEEgEAAEQkEQAAQGRysfpOuYFR2X/1Z15y699+x//0qlK5p9u8/W+zspW6s/hVs/no9qkaq9P306nXz2rdWf1xufOPcaTb92796phWxJm12elTZ4xP16+dK8l+685xd0zVWNVnNNtD13DWdJ9bMh8rzovO+tx1VsziV8vtmrfk/Kk+92uZ411nb9LmyK7PNbM41b5fy/rauT6rVnwWv5dvIgAAgIgkAgAAiEgiAACAiCQCAACILPmL1b/zb7zqgesm9RP/8k+/pBRnVG5nP0exOn2ftbmi71XVMZ5O9X4e/dxGZmO614p+ztrs9ClZc0mfquU68bttdvdbtdzOfXnus6a7jpP5qPazWncWv1qu+9x27aNd52wyH7v2wa45TtbsijYv7XPNrnfRqvq7dM60Wf0V79x7+SYCAACISCIAAICIJAIAAIhIIgAAgMiSv1j9L/7UBxfrjv99VP93/c3vKrU5i93564qz2Lv6WW1z9txG9Tt9T4ziJGPsrKUVz22mO85qm9VnOVvv537GyZrrtlkt2x1j9y9rd/brbL13xrTrrFmxh5P43Ti7ntuKs2Jk1zOqjjFps3tGHznHSdkjz6pdn2tWvIuOXl9d1XnqjrP72bEyT76JAAAAIpIIAAAgIokAAAAikggAACAiiQAAACKTX2eqNzAq+7v/1vlvuf/zP9n75Y1qn7pjX9HPbpvVsqM4ybMc1e+ujxXrqzP22bOo9rP6LGdtdmLP4lfns/p8kzhJmyPdddyJn4y9Wr/73JLxHHnWrNjD3TZXPLdO/Vl/du2jznx238Mj3bPzEud4xXunU25W9prPtKpkLXTbfJg+N/smAgAAiEgiAACAiCQCAACISCIAAIDI5GJ170+5/7P/9kNu/dvv+Z+/s9zmqP7o4ke3zZHsAtLtsSd9OjJOtc3qvD3d5u1/W9FmdX3N4nTW0mxvdOqveJZJ2c7e2LUOL7F+dy0kqs/46PmstrliDx95LnTPtHG53r7uPvfOfM7GuKLNzvo8eo6PfO8kZa/lTLvmNXstn5vvre+bCAAAICKJAAAAIpIIAAAgIokAAAAiw4vVXd3LtEe22bXickw3TneeqnEurc0kVneOOvVndVf0sxqnakXfj3wWq+qvuKBbtWs8SZzuft91Bl3iO6bqyL7vfEesWJ9Vl3jWrHBpZ9oKl/i55hI/N9/LNxEAAEBEEgEAAEQkEQAAQEQSAQAARIYXq2+Cv25YLTsq93v/9neU46xo86f/xIeW6o/KPR3/9r8l9TttJjrzNKo7G0917KMxJm2OVOPMrFifK3T7WX2enWeZxL7EOV6hegbM5rOzX3fN8exd0DkTZ/NxLWv2Wvo50nlGK94R8/h7PoM8KudXdZxHnmndskd/rhn3qRa769zr2DcRAABARBIBAABEJBEAAEBEEgEAAESGF6vvBpeaqmVH5X7qj48vnbzz37l9yWNUNmmz2qek3Kif1frVuqfTeEzVOZrFr85Tt+8rxr4iTnWOkja7dq35Xev4Eud4hepz27UPknO205/ue2PFc9+1ZpP61XI799aKNVu1YuzVct1nec3nV/J5oVpu15nWLXv055qq7vrqfoaoxPJNBAAAEJFEAAAAEUkEAAAQkUQAAAARSQQAABAZ/zpT0EC17Kjc70tuwzfrd8zG+E+rvy7QqHu/+NVy556nbt+79avjWRFn1mZnjmdt7lrzR67jXXO8Qve57doHM6P41X6uOM+r/Zmp9vPoea/G2dnPzpq9xGdULbfzPD3y/KrO++lU7+fRa7baZrXcis81l7g3un26t75vIgAAgIgkAgAAiEgiAACAiCQCAACIjC9W371TbqBadlTun/w3HxbEuf1vo/q//395ZbnNkVGbsz+l3o11brNn0ZmnS5yP6rpZ0c/uHHfns7vmq/GPXNsr1nHXin0wGmf3WVbXzNPxa3Gq/eye57va7LqWPdidu3G587/Hd+3hpO8r3o+7zq/u+uq8X1es2SPPtK5L3BvnPhd8EwEAAEQkEQAAQEQSAQAARCQRAABA5NCL1X/g7357OU7VP/5jHz7891GsUdnRRZJZP0f1V4ypGnt2CaY69pGj56P7jKptdtZHEr+7D0b1q8/y6fq3/6069l37tbuOj15znb3VfZbjcuMzurNmV8RZ0WZ3fVTXwq49mJTtnpMjK97jD9seXvEuSup3+9R5xsl4krP/drnzn2nJfhtZ8XnhEtfHvXwTAQAARCQRAABARBIBAABEJBEAAEBkfLE6aKBadlTuJycXWd6leMljVL/b92rsWf1Rn5I2R6rj7Pa928/OfMzWQrWfs/rVNjuxk/jJPuj2qWPF2t61jpN+Xsve6pit986a7cap7uEVfb/E/VaNnZRNzsnO81ix3655D3fX14r1uatPuz5/rTgXVrzbr+XzQuezuG8iAACAiCQCAACISCIAAICIJAIAAIhIIgAAgMjw15luJn9SvFN2VO4P/r1XDMv+oz/6EcU2b//brM1qn6qxk/ijNpOxd+LMjNqs9nMWp/M8ZuuoUz9ZC0mfdsWvStZXtf6uNberzXn92nPbtbe6qs9yRfxL3MMrrHiWyXMb6byHk7IrztRdba7Yw9W6sz7tcol7q/P5a+ccX8s+6JidC5WzzjcRAABARBIBAABEJBEAAEBEEgEAAESGF6svUfXSSXJ5qhNnp26fdo2pe5ltpFN/VndFP6vxV1zA7JSbucQ1t+sMqFrxLLsX4keSH3FYMce79vAK3f3WOWsu8V3U/fGNXW1W7ZzjI39cISl37j4lz+3IM/XoNXtp66Ma3zcRAABARBIBAABEJBEAAEBEEgEAAESGF6vvBn8ps1q22+Y/fNfaZZBZnD/0E7ULKqM41bqz+kePvTOmFeNJ5nOXbj+r9ZNnUZ37FfO5a80l66vTp+4cJfuyM87qGGf1u2v2yDlOdM/papu71lJ1zSRtdsrNylbH3n0Pr2izu4erZm1W46/4vNFtc8Xnhc77sTvH1bqz+FXX8nk0+Qxyb1nfRAAAABFJBAAAEJFEAAAAEUkEAAAQGV6svjndKTdQLdtt8w//xLeV64/8g3f9yGLsB687q5/0fcXYRzrz0R3PKPaKMc6M4q947uNy598H3fmszseKZ3T0eq/O58O2r0+n8z/jZI67bVb3a/X5ztrs7rfqWhr3Z3xWdOaze/503huz+p092O1T8ty6/aw+txV7uNvmkZ8XknK7ztQj1+zRn0fv5ZsIAAAgIokAAAAikggAACAiiQAAACKSCAAAIDL8dabZn+rulO22+ff/69s30v/I/3r7lvmo3KzNUf0VZn0a6Yw9id+Zj+54kufWeUaXuBZ27a1dz2jFOuyuhWqcme6arbZ5afs66VMyxyva7OzXbpsr1lISZ8V8VuMfeU7uij2LXy0362f1vFgx9mv+/JOU65ypyeeFarmda7bq3M/DNxEAAEBEEgEAAEQkEQAAQEQSAQAARIYXq2/u1v70eFK22+a7/v2Xt+KM6v/EH/moB44zM2rzZnA5ZUWcmWr8apuj9mZtVs2eW/UZVec9qb9rLcx09la379U4K9bhTGd9JnG6Z1pn7o/c17M2x+XOv+aSNlecC93zb1z2wfdM95ztPqNq33edk7N5W7HfOvsgKVvtezL2S5vPnZ8Xjvxck+z1Fe/nkR2fR30TAQAARCQRAABARBIBAABEJBEAAEBk/BergwaqZbtt/r3i5ZgVcf7o5NLJqOyozVH92XiqZatxEt02q3NXHU8Sv9v3I9dC0qdquWR9jexac9V93Y3fjZOUO3IfjOxqc8WZlsSvluuu2cSRe6bzHp3Vrz7Lnefkpb13krK7PtccOZ/JWth1VnTnoxsn2TNVuz6P3ss3EQAAQEQSAQAARCQRAABARBIBAABEruZi9R9bcBmuG6dTf8V8/N3J5Zhq2VGcWZsjnbUwm7dq/BV9X7EWrnk+d625ZN4740ljnbvN7nPrzPGKNnednbP61XLJmq2atVmNn+ytXe/Hqp3vsk78XefkOeJ3XOJ7/NLi7PxsUG3zyHOh847wTQQAABCRRAAAABFJBAAAEJFEAAAAEUkEAAAQGf46083dO+UGqmW7bf6dP/zRt/7tj/+Dby23Oap/M7iSPio306k/qjsvu2eOk/nsuJZ+dtfCuNz5x3PkfK6I3Z337rlQ7dPsmV/aGbBifa14bkfvtxVrYcXeqvZpxTmZjH3k0tbx0fF3fa5ZsRaq45nXPy5Odz46Z0W3T91zodqfap98EwEAAEQkEQAAQEQSAQAARCQRAABAZHixuvun3Fe0+ScGFzz+dnC5ptrmJdo1x6P57M7RqM1r7mc3TnU8s1hHzueK2Em56tx3z4VquZ3nR6efu9ZX97mtsGt9zsZ45N7qnpMrzsRrWMdJ/ORzyZGfay5xLVStiJPMx64zsfrcV3yWnqnMk28iAACAiCQCAACISCIAAICIJAIAAIgML1Zfs3NfGtktuVR1bt0LWdW+d+f4yH52L/dV6yaOrL9zv3T2xop+Jmuh22bH0etr1zl75Nm5wq5z8ug2O7EflfqXuF92XeBOyu1an7vee5f43O/lmwgAACAiiQAAACKSCAAAICKJAAAAIsOL1Td375QbqJbd1ebf+q8+Johz+99G9f/k//Yt5TarZv0c9aka/xKf26jv3WdUjZ2U3TXHK+ZjV/0VscflxnPc2YezflafR7Ivq2dINc79Yt2uv+dMrNY9nepjT55v9xmNPGzvsqQ/nb3VOU+TNq/5nOzW33l+dax4bivWUvdc6K6FTpzkvbPjufsmAgAAiEgiAACAiCQCAACISCIAAIDI8GJ1cBekXHZXm39qwWWhvzm5RFONNao/G+OozVn8apudstfy3Lr9vMQ5XrGWr8FsPkbPqLpfus8teRYr9kFnfV7iOurswVn9ztk5a7NTrtvmiue2a28l78xqm5e4ji9Rd2+c+3NN97lV12bSpxVnTdeK9071uXfG45sIAAAgIokAAAAikggAACAiiQAAACKSCAAAIPLQ/TrT35jcuv/Txdvno/qz/sxiVepX+3OO+tU2O+W6bSbPLXlG1fjd+azGScqNxrmin0dKnmV17Cv2W3Wvz+p3ys3Kds60pH5X9Rnv2oO7zs6k7NHvsl17q9Pm0ev4EnXehbs+1zyM7/buu7k6zl3vnc7e8k0EAAAQkUQAAAARSQQAABCRRAAAAJHhxeqbu3fKDVTL7mrzz/7Dbx6W/et/6GOLbd7+t1mbHdX+nE7jPo3qJ2MftTmOfexz21U/mc+RFXM8it/t55Gqc7RiD3f324o57u6tznzM6nfGOetPdT537cFZP6t9qu7rp8tex7vs3Htr57voms/Equ7eGtetv3c6uufctbzbL/EdM47dO2vuLeubCAAAICKJAAAAIpIIAAAgIokAAAAiD91frE7K/rniRZa/Nrkw06k/63u1zURn7Lue22yOd9UfzceKNqt1k7Kjfq5YR4nqmk/62a3f0Z3j5AwY2TX26jhXnGm79nVixZrtlJuVPXqcO+Ik6+sSz8Sq7t6q7plZm525W3HOXfO7PbFiza54HvfyTQQAABCRRAAAABFJBAAAEJFEAAAAkUf6YvX/2LyA1Kn/300uzIzanJWt9mfF2Dtlk/k4Urefu+Z41KdZ7HPPc7Lmkn5W2+zsl5lRm509NKuf9HPF2KvjrPYnOdO6bVYlc7TruXfKzcpWx9l9R1zzu2jFWdFVXXPds2LFPloRe9dngxXv9hVn74rzq/s87uWbCAAAICKJAAAAIpIIAAAgIokAAAAikggAACAy/HWmm7t3yg1Uy15im3/+H31Tuf4uo37+2B/8uGLd8b/vGmfnuc3GuKvvo/ij+aw+i1n97ni6e2PU/2qfqnOUtLliXyZjrI5pxTpcsZZ2rc9dZ29yLiTrc+TId8Su+ZzF6T6P23HG/37kfCb7Zdd+37WvjzwTd/a9Gn/Fu/0SPxusWEv38k0EAAAQkUQAAAARSQQAABCRRAAAAJHhxerun5e/ljZ/dHDB5N03XfwaxT6dxv3s9unc40z6Xi0368+KZzRqc8W8V2MnY+/ujVGs2fOstJn0vdrmrG61791zoRonWR+71ly3zc5zS8ruipOMfdc7YsWa7c7nijOgGufI+Uzmo9rPFe/25Dzv6pyJ1fZmbVZVY8/i7/qcl6iuuZ2fvyp8EwEAAEQkEQAAQEQSAQAARCQRAABA5JG+WP0eg8skPzK4tDIqlxi1Oet7p0+jcrNYnTaTvlf7k5RdMR8r1kIydyPVflbrroizs80VcTpnzWx9Vesna7azN1f0M3HkWtj1jGbjqT6j7ppdMZ9V3TnedZ5X66bxj2yz845K5rNarvt+3PUZZMXnvETns8GKz1/Je+devokAAAAikggAACAiiQAAACKSCAAAIDK8WH1z9065gWrZa27zf/gvP35Y9r//37+xVPZmcJNlVDfpU1IuiVVpc9bebJ5ut7kmfqVut351jE/Xf/DY3fjdOR7Fqa73WfxqmzPVvdV9RuNyD74OE90zbUWfrnktXMsz6q7Z7nxWXeK8d+Zz17toZ5vdsR/5fqzGWfEZJPmcV5Wcid3PNZ2xJ/N5b1nfRAAAABFJBAAAEJFEAAAAEUkEAAAQkUQAAACR4a8zBT9Y0P5T3dfQ5nsGt/Or9X84+BWD7nyMYlX71J3jZO6qbVbnLpmPav3ueLrPvRv/3HFmc1ytf4nzUY0963tn7N39Vt3rK/p0iWvhyPlIyu46a1aMPXm/Hbk3dr2LZnGqY1rRZve5jxz5fkrK7tpHyZrtfCbsnrOJytz7JgIAAIhIIgAAgIgkAgAAiEgiAACAiIvVhXI/tPES9Hs1Lsd02xzVT/pTnbtRm7M57vbp3Gb9rI6pO57qfCb1O2t+tuY69XfOR7XNpJ+7xl6t3z2/OudHEn/FXl9xnnefUbXcirPmUVkLnXfRrOyu/Zq4tDNg1/tpZtdnkGq5neujM/edsfsmAgAAiEgiAACAiCQCAACISCIAAIDI8GL1TXCTpVr2mtt8n588/0XeWX/+8rvcvuAyij8ql7RZ7VO17qx+de5mfa+OfcUzSuZ4pDof3Tne9Yx2WTEfszFWn3EyR5363bEn5c7dp26cJHbnTOyu913PaNeaS1ziWqjGXzGfu86qWZxd6+saPkN063fX7Iqx76rfGbtvIgAAgIgkAgAAiEgiAACAiCQCAACIDC9Wn053giaqZa+3zb/8Lp8wLPk+P/kNpRZn9TttjvpZr7tPMva62jNK5qPaz2yOe+t41/Pszt25Y8+s6VNtH3XXcbd+b+zj9dXpU3dvrZjj7rPs9Km/NuvvnapLPBNXrIUV7+G6Xe/h7jvi/OvrEt8Rl1b/Ej+TJSr71TcRAABARBIBAABEJBEAAEBEEgEAAEQkEQAAQGT460zFv6Qelb3mNt93csP+B4u39ne1Oas7i3Vuo/jJ2KuqbVbncmebSblRrO7cVZ/RkbGTvVHt0+y5rTgXVqiOvTrHs/qd/szsmuNd743kXOg8oxXr65rPxJ3v4aoV7+FkDx859kt8R1yaoz+TVXXej76JAAAAIpIIAAAgIokAAAAikggAACAyvFh9E9w8q5Z9VNp8/3/cuzCzos3v/wO3L8102hy1dzrV+570Z1S2+yw7Yz+6zercdZ/RyIrnlszbqP5snJW6Sfwk9q69VS2XPKPqWtp19lWf76x+p9zONpM93Nmvu86vFWthRfxkjrv7oHNWdedzZMXYd70jVpy9Xcl+O/dnssS5zwXfRAAAABFJBAAAEJFEAAAAEUkEAAAQ8Rerz9zm9w0urXzA4HLKqNy1tDmbo1H9an+Sst04K8a+os2R7jpO1s2Dxp6V7cRO2kx0xj6Lfc17q1oueZadsXef78glvjeSctewZleshZkk/rnjJOuzUz+Zz2r9nWM/d5vd93DXivNrRd+7/az0yTcRAABARBIBAABEJBEAAEBEEgEAAERcrD5zmy9uXgyq1j+yzVl737vpMls3TucZdebyHG1e2jruxu/GHq2FUf3ZmrmWse/aWzvKzcomz636jEb1L/G9kZTrrs8kVqXcJZ6Ju+aoui+79WfPp1O/O8crzt4V7/ZqP2eqZ0gy9pHOHM/K7vi84ZsIAAAgIokAAAAikggAACAiiQAAACKSCAAAIDL8daabu3fKDVTLPiptfvfv/8Ri3fG/j+p/0D/5+lK5nW2OjOZjFCexos3OM5rV7cxntT+z+uNy51/H1TE+3eZ5Y8/rP3ic06k+pl1jT8qu2Fs7yp2jzc4eTubtWsZeHdOu/Trrz64zsTNHs/rdtXRpunNcHXty9q6w4h1ziWOvviPO/X71TQQAABCRRAAAABFJBAAAEJFEAAAAkeHF6uAubbnso9LmSzZdFloRu9vmqP6rBpd4Rm2Oyu1sc8Vzu7T1kZSt9nMWp1N/17Poll0x9qTsin2wo9w52uyskdl8JPEftNw52kyecafNav3uO2LXmdh97tV53zWexKif3bXQXXMr5q46zhVxRlaMfcV53pkP30QAAAARSQQAABCRRAAAABFJBAAAEHGx+sxtftfg0ssHNy/xjNqsxp7F77Y5MqpfHfts3jtzl7TZfW6d+dy1PmY6z30Wp1M/WcfV2DvPiu7cVcvu2luXeB5X91GyFlacNZ2yu9bH6bRmv3bq7zoTu3FWnF9d3bF31sKK51bd10mfkjW3ay113xud87yzZn0TAQAARCQRAABARBIBAABEJBEAAEBkeLH6JrjRVS37qLT5of/09kWU7/h9ty+tjMrNylbjJFa0OTIaz8hs3qtzV523JH6177P61fmcxemMM3mWu9ZCV2ctdecjKbdi7jrrM9lbSf0HLXeONqtznKyFI8+aTrlZ2V3n1wq73pk7z95kTFWX9j5Y8dxGVpwLSdlL/Jy34v1YGZNvIgAAgIgkAgAAiEgiAACAiCQCAACI+IvVV9Dmhw0uvbxycOFlVG5WdhQnabMTJ2mzqhtnRT9H81GNnZStro+kze5a6Jj1vfOMuvORlOvM3Yqx77Lz7Ny1t6rlumdNp9ys7Irza8Waq743Zjpj3znHnXO2ey6seB9U6yZlu8/t0s6FpOyK59bdr5Ux+SYCAACISCIAAICIJAIAAIhIIgAAgIgkAgAAiPh1pke0zQ8v3tr/9uavA4zijNqs9mdWfxS72/ekn9U+JeMc6a6PTvzuc6u2mfS9+oxXzMfR/VzxPKqS5zZy5DpOY1XKdc+aTrlZ2RXn166zO2mz8zxWzHFSvzrO7j5Y8S7qWvHcLu1cWNFmd78l7ye/zgQAAJydJAIAAIhIIgAAgIgkAgAAiIwvVgc3RKpltXlZbb7inYsXmAZ1P+KnmpeDG/2Z1e/2qavap9E4Z30fle2uj2r8auzZc+u0mTzLbv1zz8fMkfuoG2fXc0vKdcY5W7OdPq04f3aur079FWf3Jb4PVsTpvIe79ZOzuyPZbyvm88hzoVt2xWelpFxl7nwTAQAARCQRAABARBIBAABEJBEAAEBk8her75QbqJbV5mW1+ZE/9bJy/Xt92zu/dPjvozZHZUd3eDr9mcXptlmNczolf4Fyz3ObxenU785ntc3ZHI/bvK1bf1yuNx+j+sma7eyjXft117x3489id/ZGMscj1Xk/R5/G9W/rzOeus2Km+z6oPo9de3inztwl67i6h5O9fu51PIs/rr/nc96K9THrT+V5+CYCAACISCIAAICIJAIAAIhIIgAAgMjkYnVd/YKcNi+pzZcPLsx81ODCzqhcN3Y1TrdPSZsjydirba54bkmcTv3qmpmV7a7t6hyv0HkWs/rJeDr1V+zXJE7nue3q++nU2xvJPui2uaL+ue08z0eO3q+dNpNztmM2H+d+73TXcVJu5zzda9fnvEv7XOObCAAAICKJAAAAIpIIAAAgIokAAAAikggAACAy/HWmm+CaebWsNi+rzY/56Zctrzur3yk3K5v06Vt+70vPHqfT5jniX5pzr7nTaTzHK+ZjFGfFs6iumVn8XWuuG6f63KrznsTvznH3GXfaXLE+jtwvM9dyznXW8enUexfO2uyspVl/zj333XWclOus+eS5rTgXurF3fa65t6xvIgAAgIgkAgAAiEgiAACAiCQCAACIDC9W7/rz3do8rs1vLl7C6dSd1e+Um5Xt9uljmxeldrU5Gmc3Tsds3s+95k6n8Ti78zGqX32Ws/FUy65YM11H9qkbe0Xfq+vr6H1QlazZav0Vz+3oc646zpHuc0vms7OWkjbPvT6SNke674gVbXbPhU65WdkVn0Hu5ZsIAAAgIokAAAAikggAACAiiQAAACIuVj+ibX7chf1F0KPH802DC1CjNkflTqdxn1a0Wa2/4vmO4sye2671VZ33pH617yvW7KzvRz7PFeurE3um2/dkfVfL7Xpu1bU062d1nrvreEWbnTnunr3VuveLVa1fLdtdc519mPRnxTru9qnTZlJu1ztmxWeQe/kmAgAAiEgiAACAiCQCAACISCIAAIDI8GL1TXCbo1pWm5fV5jf8Fy+99W+f8H+8rN5owyj2zvF04s/Kdeau22Z1PpI2q3OUzHF3fXX71IkzsnNfd+ZzNp7O3K3Yb7vOn5lOn45+btVyu+Z45zlZnePk3K/WH1kx9iRWZz5mbe7qe7Vc0p9L/Lyw6x3TPb8q9X0TAQAARCQRAABARBIBAABEJBEAAEBEEgEAAESGv87U/VPb2rz8Nj9xcOv+6we/GDAqlxi1We3PzJH1Z/NenbvqfMzKVvs0G8+KNqv1O3OU9ClZxyvW50h3XyfzdGSb1bK7zp+RZH1d4hx3zqpZ7M48d8+07jnZmY+d753O+u6eidW6s/q7+l4tV91Ds/pHf15Yca6tOL8qz903EQAAQEQSAQAARCQRAABARBIBAABEXKzW5n3LvWxwsealk0tBo7KjNkf1R3Vnqv1cUX82l7M5qdSv1j2HTvzuHHfm6Bz1q2Wr67O7D6r9Scp219KuNqvlZmuus2a766urO8edsypZs9V9cPQ67MzHw/je6bZZLXvN78yjn1vyPqnGPuqzhW8iAACAiCQCAACISCIAAICIJAIAAIgML1bfBDduqmW1eZ1tfvI/e1krTrX+rI9J/CN97e95aancaJyzup2xz9pM4lfqJn3sxDlH/U7ZbpvdfVAtO5qjWexR2U6byZqrlkv6vqLN7vnTmeOZ7j6sttmJnZxp1Tnq9ulRsWt9rNgb1dgr1tfRa6b7fquO/dzj9E0EAAAQkUQAAAARSQQAABCRRAAAABF/sVqb9y33NcGFv079WR9H9T/lwAtQs/GM+t/tZ3Xso3Kz+Tz33HXXx5HP8nTat9+6+6BaNpnPcz+P7prbOfZqm509OGtzxZpf0c8d5WZlu+v40t4bq1TP/mQ+zt3m0XujGmfWz1379dLOtCrfRAAAABFJBAAAEJFEAAAAEUkEAAAQkUQAAACR4a8zwTMu8Rctdv3yRvLLQ9Vfe0h+FaIj+eWN6tx15+Pc/UmsmOPErn3UHeeKNbtr7lf0vfvcOufCzM7z4ijdMa6Y9yPtXLNHtnmJe+PId2b3V7U6ce4X6zfyTQQAABCRRAAAABFJBAAAEJFEAAAAkeHF6pvgb9ZXy2rzOtv8qt/90lv/9mn//GX14E2j+Cv6WY2TtNl9ltVY3bUwGnu17qyPnTZndavzUX2WSZsr5vjo9dlxZOxu/GQtdNZxUrYaZ1a/O/Zzj7M7HyvW0oqzZoXu+VU9a2Zj75xfSd87sZP6l3gu7HrvrDgX7m3TNxEAAEBEEgEAAEQkEQAAQEQSAQAARIYXq4O7HOWy2rzONj99cDHnKyeXikZlq2ZtVvuUtNmJ020zKVeN1V0Lnee2M05nPmaxj5zjXetzxbyP+nP0uXAt++XS9sY54lfjVMt213F1zSbnwopzstvPke57pzPOFX0/em9Uy3bXZzVOUnbHueCbCAAAICKJAAAAIpIIAAAgIokAAAAiLlZr82zlvmJwieczBhdzRuVmbVbrjyRtVl1Lm0ms6nMbmT2LTpykze4c7WrzyNiz+ezszaSfu86FFbr7pTqmFW2ueEad/sxU+14995M2k/qdOZrV3zX2pNy592u370fvjZEV47zEd1ll7n0TAQAARCQRAABARBIBAABEJBEAAEBkeLH6JrgVVS2rzYenzVm5z/oXL3vg+tW656j/Zb/rpaX6o3KzsR/ZZrXuLFa1n9X2Zm1WJW125n0Wa0WbndhJ/F17q7o+Zm12Ys/id9bcrM2jz6pOm91n1DkDunOUlOueidVYK+a4885M6q9oc8Xa7uo8t+SsWTH2a32X+SYCAACISCIAAICIJAIAAIhIIgAAgIgkAgAAiAx/nan7J+u1+XC3OSv3pcVfqhjVr9ZdVb9a7rObv8DQbbMzx0msFf0c1R+V27m2O8/z6Dmu1r/mvZGU7ay5WZsr5nNFP6vlus+oateaS2I9jOf5inP23O/xFWtuxd5IylbneDb2znvv0t5lvokAAAAikggAACAiiQAAACKSCAAAIDK8WH0TNFAtq82Hp81Zuc85+E/en9tonF8yudA1GvuobNJmtU/JvFdjrehntVwynu6aHY2p8yxnZat92jXHp1Nvv+7aG0n86ni689Fds1Ur+pk8o6rkWZ57zXXbvPbz/NLijHTX3Ir1dYmfybp93/Uuu7dN30QAAAARSQQAABCRRAAAABFJBAAAEBn/xergz/lVy2rz4WlzVu6Lf+dLb/3b5/7Ll9UaPdio76NxJuPp1q8a9X1mV5+qRv3pjicpVx37pc1bortfL3FvdNZNMh/d2NUxVef4frEq9Wf92bUWzh1nVZsjR57nSZzqOLtrthP7fvEr9ZP1VW2zW7bbZrfvR73LfBMBAABEJBEAAEBEEgEAAEQkEQAAQGR8sTpooFpWmw9Pm7Nynze4nPNFg8tCo3I7jfo0GlN1PDOjNrvz0el70uaKZ7Si71WzNVt9ntVneTodu76rc3w61ft55N5I6h99rox01tfO8XTO/qSfu+KsaPPI83zn3qiO6cjzfGbXuumUm5Xt9vOod5lvIgAAgIgkAgAAiEgiAACAiCQCAACISCIAAIDI8NeZboIGqmW1+fC02Y39BYNfAviCBb/gMIpzOk36VIw/G3un/7N+VuOPYrfbbD6jUf1u36vxq7GTNhNHru9kbVfXSPdcWDH2YZxN816NfTr1zpruPkja7Dzj7lnTjVM9Q1b0fcnZu/FdONJ6RgvO82HdZL8Vz4UVeyMpu6Kf3bVU6ZNvIgAAgIgkAgAAiEgiAACAiCQCAACIDC9Wd/98tzYf7ja7sb9wcNnn8yeXhUZlR0b1Z/1M4lfbHNWvxkn6WbWizeoczeJXYydz3I1dfW5Jf0bxO3Fm9TtzfI76lfZOp/7Yq22umPdO7Fmsaz5rzr1mVsXZ1c9q7CT+JZ4VI93PCw/bO3PF56IkTnXukjOpMibfRAAAABFJBAAAEJFEAAAAEUkEAAAQGV+sDm6IVMtq8+Fpc2fsz/sdL33g+l/0r15WC36G+ivijMY+Kjsql8xnp81kjjrPMo1VNYq1q5/VOLNY1eeWtLlizVXrJ+PprMVZm7v2wbWcNdU2q89ypjrHu9Z2onv2jqwYe7K3uvu9Wq4695f4zhzpfi7aFScpV3lGvokAAAAikggAACAiiQAAACKSCAAAIHLnlP2hPQAA4BHnmwgAACAiiQAAACKSCAAAICKJAAAAIpIIAAAgIokAAAAikggAACAiiQAAACKSCAAAICKJAAAAIpIIAAAgIokAAAAikggAACAiiQAAACKSCAAAICKJAAAAIpIIAAAgIokAAAAikggAACAiiQAAACKSCAAAICKJAAAAIpIIAAAgIokAAAAikggAACAiiQAAACKSCAAAICKJAAAAIpIIAAAgIokAAAAikggAACAiiQAAACKSCAAAICKJAAAAIpIIAAAgIokAAAAikggAACAiiQAAACKSCAAAICKJAAAAIpIIAAAgIokAAAAikggAACAiiQAAACKSCAAAICKJAAAAIpIIAAAgIokAAAAikggAACAiiQAAACKSCAAAIPKcozsA/P/9+I//+OmFL3xhqezbvu3bnk6n0+m1r33tWco948knnzy927u9233L6Ocx/UxiJ2UrfTyd9LNaVj+P6SewjyQCLswLX/jC0+OPP376f177xmct+5ue+5tOpzun03/yFv/xWcqdTqfT897usXI/X/QOLzq94eefOms/757uluI//vjjS/pZif/c5z73dOfOnUPm85m5rHjuc59bKledy9Pp19fnE088UYpdmaPq+nje2z1Wam9lPyvrY+V8VlTX58r5rPazIplPYB9JBFygJ5544vTK9/m2Zy33lT/9NafT6XT6inf/srOUO51Op8/40c8q9PBpb/j5p0ptJv38tbu/dnqnd3qnZ23z1a9+da2Tp6yflfhvetObTm9+580Pmc9n5rIyR29605tKZZO5PJ2eXp+VOTqdamuuuj6SuTyd1vSzsj5Wzmf1uVfW58r5PHJ9Anu4EwEAAEQkEQAAQEQSAQAARNyJgAt1t3a/OCpbKReEPd0NYlfjr5D2s9zuwfN5Dc65PlZOzcM276fTsfMJPPx8EwEAAEQkEQAAQEQSAQAARO6c/N8i4aK8+tWvPj3++OOnNxb+2NxbvfCtTqfT6fTv/99/f99yz/mPnr7+9LonX/esbT72do+dfvY1P1v67fYXvcOLTk8V/ohb2s+f+ZmfedY2n/nDVyv6+au/+qv3LfcWb/EWp9PpmPms9vE39vPZ5rM6l8/0s/JHx97xHd/xdDo9+zM/nerr87G3e+z01M8/dXrBO7zg0H4eOZ/Jcz9yPo9an8A+LlbDhXnyySfLZZ9/8/zTm73Zm51+7e6v3bfcc07POd3c3Jze+KvPnpi88TVvLPVhZT8rnnjiiWX9rDhqPp/p45vfefNS+cp8VufydKr38+bmpjyXz5R/tvmszuXptLafz2blfCbP/VGcT2Af30TAFXvmL7lW/+LrUf9Lnn6ezzOxv+29n/0vmn/Wj33W6Y2/+kb9vA/9PK9kbxy934EedyIAAICIJAIAAIhIIgAAgIiL1QBX6O6VXGfTz/O6ln4CDz/fRAAAABFJBAAAEJFEAAAAEUkEAAAQcbEartzjjz/+H/5o0/3KPPHEE5t6NO+Dfp7H448/fvrsH/vsZy33vLd73umNr3n2v6q9in6e1zX189n20DPljt7vwIOTRMAVe/LJJ0vlnnjiiXLZFfTzfJK4b3zNG/XzWejneSVxj97vQM+d08nvxQEAAHXuRAAAABFJBAAAEJFEAAAAEUkEAAAQkUQAAAARSQQAABCRRAAAABFJBAAAEJFEAAAAEUkEAAAQkUQAAAARSQQAABCRRAAAABFJBAAAEJFEAAAAEUkEAAAQkUQAAAARSQQAABCRRAAAABFJBAAAEJFEAAAAEUkEAAAQkUQAAAARSQQAABCRRAAAABFJBAAAEJFEAAAAEUkEAAAQkUQAAAARSQQAABCRRAAAABFJBAAAEJFEAAAAEUkEAAAQkUQAAAARSQQAABCRRAAAABFJBAAAEJFEAAAAEUkEAAAQkUQAAAARSQQAABCRRAAAABFJBAAAEJFEAAAAEUkEAAAQkUQAAAARSQQAABCRRAAAABFJBAAAEHnO0R0AuHQf+Ns/qlX/e/71y0ttjsolZZM2q1aMfVecXX0HeBT5JgIAAIhIIgAAgIgkAgAAiEgiAACAiIvVAM/i7uDfvndy6fbFxcu8oza7ZZM2O7FHY6+OuxsnibWiTQCe5psIAAAgIokAAAAikggAACAiiQAAACIuVgPQNruwDMDDyTcRAABARBIBAABEJBEAAEBEEgEAAEQkEQAAQMSvMwE8i5u7d89e9ug2O7Hf/0Ufeevfvv9nv60VJ/l1pyPnGICn+SYCAACISCIAAICIJAIAAIhIIgAAgIiL1QDPYnTl9v0Gl4tPp/oF4+Qab7XsiqvBozZ/oHmJumo2xyvmw7VqgIxvIgAAgIgkAgAAiEgiAACAiCQCAACIuFgN8CzuDq7d/uDPvmJY9n1f9BGlsqM2k/idcqfT+fs5am/WZtXsAvcs1r1WzDEAT/NNBAAAEJFEAAAAEUkEAAAQkUQAAAARF6sBnsVNcOe2WnZU7r1/2/jC8DW0mczRyKyfI0fOBwBP800EAAAQkUQAAAARSQQAABCRRAAAABFJBAAAELlzOp38JgUAAFDmmwgAACAiiQAAACKSCAAAICKJAAAAIpIIAAAgIokAAAAikggAACAiiQAAACKSCAAAICKJAAAAIpIIAAAgIokAAAAikggAACAiiQAAACKSCAAAICKJAAAAIpIIAAAgIokAAAAikggAACAiiQAAACKSCAAAICKJAAAAIpIIAAAgIokAAAAikggAACAiiQAAACKSCAAAICKJAAAAIpIIAAAgIokAAAAikggAACAiiQAAACKSCAAAICKJAAAAIpIIAAAgIokAAAAikggAACAiiQAAACKSCAAAICKJAAAAIpIIAAAgIokAAAAikggAACAiiQAAACKSCAAAICKJAAAAIpIIAAAgIokAAAAikggAACAiiQAAACKSCAAAIPL/AQDlsMGDhaLLAAAAAElFTkSuQmCC;" parent="1" vertex="1">
          <mxGeometry x="398" y="49.480000000000004" width="440" height="560.52" as="geometry" />
        </mxCell>
        <mxCell id="_g2ogZUAEanuZd8ZjJVK-4" value="" style="shape=image;verticalLabelPosition=bottom;labelBackgroundColor=default;verticalAlign=top;aspect=fixed;imageAspect=0;image=https://www.partecipart.it/wp-content/uploads/2021/11/david-di-michelangelo-dettaglio-volto.jpg;" parent="1" vertex="1">
          <mxGeometry y="767" width="422" height="633" as="geometry" />
        </mxCell>
        <mxCell id="_g2ogZUAEanuZd8ZjJVK-5" value="&lt;p style=&quot;font-size: 14px;&quot;&gt;&lt;span style=&quot;background-color: initial; color: rgb(255, 229, 153); font-family: &amp;quot;Lucida Console&amp;quot;; font-size: 14px; font-weight: normal;&quot;&gt;Nel cuore di Firenze, una città dove gli echi dell&#39;antichità si fondono senza sforzo con i ritmi della vita moderna, sorge un capolavoro unico che cattura questa stessa essenza di fusione temporale. &quot;Tha Vid&quot; non è solo un&#39;opera d&#39;arte; è una narrazione racchiusa in forma fisica.&lt;/span&gt;&lt;/p&gt;&lt;p style=&quot;font-size: 14px;&quot;&gt;&lt;font color=&quot;#ffe599&quot; face=&quot;Lucida Console&quot;&gt;&lt;font style=&quot;font-size: 14px;&quot;&gt;Al suo nucleo, questo pezzo reimmagina il David di Michelangelo, un simbolo senza tempo di perfezione artistica e un faro storico di Firenze. David, nella sua eterna vigilanza, rappresenta lo spirito immortale di una città che è stata culla di rivoluzioni culturali e politiche. Questa scultura, tuttavia, viene rivisitata attraverso la lente della scienza contemporanea e della quotidianità moderna: è composta interamente di tappi di birra, un sottoprodotto del nostro attuale periodo, spesso scartato, ma qui riproposto come simbolo di bellezza e innovazione.&lt;/font&gt;&lt;/font&gt;&lt;/p&gt;&lt;p style=&quot;font-size: 14px;&quot;&gt;&lt;font color=&quot;#ffe599&quot; face=&quot;Lucida Console&quot;&gt;Lo sfondo di questo David contemporaneo è l&#39;automa cellulare Regola 30, un concetto ideato da Stephen Wolfram, che esemplifica come regole semplici possano generare modelli complessi e imprevedibili.&lt;/font&gt;&lt;/p&gt;" style="text;html=1;strokeColor=none;fillColor=none;align=left;verticalAlign=middle;whiteSpace=wrap;rounded=0;" parent="1" vertex="1">
          <mxGeometry x="31" y="140" width="360" height="540" as="geometry" />
        </mxCell>
        <mxCell id="_g2ogZUAEanuZd8ZjJVK-6" value="&lt;div style=&quot;border-color: var(--border-color); text-align: left; font-size: 14px;&quot;&gt;&lt;font face=&quot;Lucida Console&quot; style=&quot;border-color: var(--border-color); font-size: 14px;&quot; color=&quot;#ffe599&quot;&gt;Questa scelta è deliberata, riflettendo il viaggio imprevedibile dal Rinascimento ai giorni nostri. Essa rispecchia la natura imprevedibile dei progressi tecnologici e dei cambiamenti sociali, proprio come l&#39;atto un tempo inimmaginabile di catturare un&#39;immagine digitale di una statua antica con uno smartphone è diventato comune.&lt;/font&gt;&lt;/div&gt;&lt;div style=&quot;border-color: var(--border-color); text-align: left; font-size: 14px;&quot;&gt;&lt;font face=&quot;Lucida Console&quot; style=&quot;border-color: var(--border-color); font-size: 14px;&quot; color=&quot;#ffe599&quot;&gt;&lt;br&gt;&lt;/font&gt;&lt;/div&gt;&lt;div style=&quot;border-color: var(--border-color); text-align: left; font-size: 14px;&quot;&gt;&lt;font face=&quot;Lucida Console&quot; style=&quot;border-color: var(--border-color); font-size: 14px;&quot; color=&quot;#ffe599&quot;&gt;Ogni tappo di birra in questo capolavoro rappresenta un passo in questo vasto viaggio. Dallo scalpello di Michelangelo all&#39;invenzione del tappo a corona di William Painter, dalla nascita della produzione di birra a livello industriale all&#39;esplorazione dei confini computazionali di Wolfram, ogni elemento è una testimonianza dell&#39;ingegnosità umana e del suo effetto a catena nel tempo. L&#39;uso di tappi di birra, oggetti che avrebbero potuto essere semplici rifiuti, simboleggia una rinascita a sé stante - la trasformazione dell&#39;ordinario in straordinario, rispecchiando la trasformazione di Firenze nel corso dei secoli.&lt;/font&gt;&lt;/div&gt;&lt;div style=&quot;border-color: var(--border-color); text-align: left; font-size: 14px;&quot;&gt;&lt;font face=&quot;Lucida Console&quot; style=&quot;border-color: var(--border-color); font-size: 14px;&quot; color=&quot;#ffe599&quot;&gt;&lt;br style=&quot;border-color: var(--border-color);&quot;&gt;&lt;/font&gt;&lt;/div&gt;&lt;div style=&quot;border-color: var(--border-color); text-align: left; font-size: 14px;&quot;&gt;&lt;font face=&quot;Lucida Console&quot; style=&quot;border-color: var(--border-color); font-size: 14px;&quot; color=&quot;#ffe599&quot;&gt;Questa opera non è solo un omaggio al David di Michelangelo, ma anche una riflessione sulla nostra attuale epoca - un&#39;era segnata da rapidi progressi tecnologici eppure profondamente radicata nella ricchezza del suo passato storico. Invita gli spettatori a riflettere sulla giustapposizione dell&#39;antico e del moderno, del prevedibile e del caotico, e sul viaggio degli oggetti e delle idee nel tempo. &quot;Tha Vid&quot; si erge come una metafora visiva di Firenze stessa - una città che è sempre stata all&#39;avanguardia nell&#39;abbracciare il cambiamento pur onorando il suo passato ricco di storie, una città dove marmo e tappi di birra, sculture antiche e automi cellulari coesistono in una continuità armoniosa.&lt;/font&gt;&lt;/div&gt;" style="text;html=1;strokeColor=none;fillColor=none;align=center;verticalAlign=middle;whiteSpace=wrap;rounded=0;" parent="1" vertex="1">
          <mxGeometry x="440" y="610" width="398" height="790" as="geometry" />
        </mxCell>
        <mxCell id="_g2ogZUAEanuZd8ZjJVK-8" value="&lt;p style=&quot;font-size: 11px;&quot;&gt;&lt;font color=&quot;#7f00ff&quot; face=&quot;Georgia&quot;&gt;&lt;font style=&quot;font-size: 16px;&quot;&gt;&lt;b style=&quot;&quot;&gt;&lt;i style=&quot;&quot;&gt;Tha Vid&lt;/i&gt;&lt;/b&gt;&lt;br&gt;&lt;/font&gt;&lt;font style=&quot;font-size: 16px;&quot;&gt;&lt;b&gt;Collettivo Stappati&lt;/b&gt;, 2023&lt;/font&gt;&lt;font style=&quot;font-size: 16px;&quot;&gt;&lt;br&gt;&lt;/font&gt;&lt;font style=&quot;font-size: 11px;&quot;&gt;650x70cm, 4972 tappi a corona su vetro sintetico&lt;/font&gt;&lt;/font&gt;&lt;/p&gt;&lt;div style=&quot;font-size: 11px;&quot;&gt;&lt;br&gt;&lt;/div&gt;" style="text;html=1;strokeColor=none;fillColor=none;align=left;verticalAlign=middle;whiteSpace=wrap;rounded=0;" parent="1" vertex="1">
          <mxGeometry x="31" y="42" width="339" height="30" as="geometry" />
        </mxCell>
      </root>
    </mxGraphModel>
  </diagram>
</mxfile>
